<svg viewBox="0 0 511.99949 511" xmlns="http://www.w3.org/2000/svg"><path d="m505.257812 63.976562c-5.960937-3.898437-13.84375-3.136718-18.867187 1.917969l-86.601563 85.605469h-287.578124l-86.601563-85.605469c-5.027344-5.039062-12.894531-5.785156-18.867187-1.917969-5.949219 3.925782-8.308594 11.484376-5.671876 18.089844l61 120c2.285157 5.695313 7.792969 9.433594 13.933594 9.433594h359.996094c6.136719 0 11.644531-3.734375 13.929688-9.433594l61-120c2.636718-6.605468.277343-14.164062-5.671876-18.089844zm0 0"/><path d="m322.210938 331.496094h50.179687l-10-90h-212.769531l-10.003906 90h50.171874c10.3125-9.695313 35.582032-30 66.210938-30s55.898438 20.304687 66.210938 30zm0 0"/><path d="m286 481.496094c36.074219 0 70.910156-12.019532 99.339844-33.453125l-9.617188-86.546875h-59.722656c-4.234375 0-8.308594-1.816406-11.148438-4.964844-.21875-.25-22.996093-25.035156-48.851562-25.035156-25.707031 0-48.605469 24.757812-48.824219 25.003906-2.839843 3.179688-6.914062 4.996094-11.175781 4.996094h-59.71875l-9.621094 86.546875c28.425782 21.433593 63.261719 33.453125 99.339844 33.453125zm0 0"/><path d="m435.996094 512.496094h61c4.558594 0 8.847656-2.066406 11.703125-5.609375 2.84375-3.5625 3.925781-8.203125 2.945312-12.644531l-56.941406-252.746094h-62.132813l28.515626 257.652344c.851562 7.605468 7.265624 13.347656 14.910156 13.347656zm0 0"/><path d="m90.914062 499.152344 28.515626-257.652344h-62.132813l-56.941406 252.742188c-.984375 4.4375.101562 9.082031 2.941406 12.644531 2.855469 3.542969 7.148437 5.609375 11.703125 5.609375h61c7.648438 0 14.0625-5.742188 14.914062-13.34375zm0 0"/><path d="m241 .5c-8.285156 0-15 6.714844-15 15v106h60v-106c0-8.285156-6.71875-15-15-15zm0 0"/><path d="m107.054688 103.921875 17.578124 17.578125h71.367188v-86.285156c-38.652344 8.941406-70.847656 34.414062-88.945312 68.707031zm0 0"/><path d="m316 121.5h71.363281l17.578125-17.578125c-18.09375-34.292969-50.292968-59.765625-88.941406-68.707031zm0 0"/></svg>