<svg version="1.1" id="Layer_1" xmlns="http://www.w3.org/2000/svg" xmlns:xlink="http://www.w3.org/1999/xlink" x="0px" y="0px"
	 viewBox="0 0 24 24" style="enable-background:new 0 0 24 24;" xml:space="preserve">
<style type="text/css">
	.st0{fill:none;}
</style>
<path class="st0" d="M0,0h24v24H0V0z"/>
<path d="M17,5h-2V3h2V5z M22.2,18.1l-1.4-1.4L19,18.4l0-3.7l-2,0l0,3.7l-1.8-1.9l-1.4,1.4l4.2,4.3L22.2,18.1z M19,9h2V7h-2V9z
	 M19,13h2v-2h-2V13z M11,21h2v-2h-2V21z M7,5h2V3H7V5z M3,17h2v-2H3V17z M5,21v-2H3C3,20.1,3.9,21,5,21z M19,3v2h2
	C21,3.9,20.1,3,19,3z M11,5h2V3h-2V5z M3,9h2V7H3V9z M7,21h2v-2H7V21z M3,13h2v-2H3V13z M3,5h2V3C3.9,3,3,3.9,3,5z" fill="white"/>
</svg>
